PathFileType	4	(X/Y/Z)	D:\TRACE\v60_Jaco2_6-2-23\JustBodyDRS_Motion1_9-v60.trc
DataRate	CameraRate	NumFrames	NumMarkers	Units	OrigDataRate	OrigDataStartFrame	OrigNumFrames
100.00	100.00	      13	9	mm	100.00	5068	      6756
Frame#	Time	front left toe			Front right toe			aft left toe			aft right toe			Arm			FL body			FR body			AL Body			AR Body			
		X1	Y1	Z1	X2	Y2	Z2	X3	Y3	Z3	X4	Y4	Z4	X5	Y5	Z5	X6	Y6	Z6	X7	Y7	Z7	X8	Y8	Z8	X9	Y9	Z9	

5068	50.670	-179.59296	17.83715	-256.26892	218.28375	43.45504	-281.29926	-121.95907	31.85197	366.13110	215.86163	15.19389	352.44690	-85.97128	1216.06726	-379.10352	-67.22865	584.53003	-397.70474	92.36909	582.89478	-407.15195	-15.68105	547.50995	545.70123	139.92380	539.86835	537.59253	
5069	50.680	-180.42117	17.52385	-256.58453	219.16646	38.17035	-282.61081	-121.98773	25.41637	364.80807	215.41966	15.30042	352.29208	-88.00210	1215.38135	-379.75421	-68.16509	584.29138	-398.66165	91.73202	582.76654	-407.95648	-15.51764	547.17712	545.26990	140.00098	539.87860	536.86194	
5070	50.690	-181.31194	17.23271	-256.68109	219.28580	32.93980	-284.29419	-122.55647	20.06524	363.00653	214.52409	15.68508	352.19406	-89.18629	1215.23901	-380.38770	-69.03056	583.84589	-399.39926	90.88109	582.71826	-408.70538	-15.31729	546.89868	544.89856	140.45097	539.87134	536.25690	
5071	50.700	-182.17863	17.01714	-256.59521	219.44807	27.11524	-285.96225	-123.52003	17.72594	360.55539	213.14890	15.66510	351.96405	-90.92941	1215.25977	-380.83575	-69.78733	583.86078	-400.01013	90.32439	582.66199	-409.46490	-15.61027	546.90741	543.85156	140.26747	539.83978	535.06775	
5072	50.710	-182.89394	16.94858	-256.85767	219.65924	21.34119	-287.81384	-124.49863	15.43079	360.63852	212.38554	15.69361	351.91693	-90.98709	1215.63757	-381.76242	-70.71814	583.87823	-400.94818	89.62896	582.43158	-410.40140	-15.22305	547.08331	543.09021	141.14052	540.28632	534.52502	
5073	50.720	-183.78519	16.80421	-256.64453	218.69716	18.81173	-290.23578	-126.35345	16.52674	360.59003	211.67300	16.12384	351.89261	-93.58224	1214.74023	-382.17886	-71.63144	583.16840	-401.72134	87.80132	581.88373	-411.46454	-15.01229	548.94031	542.29047	141.06746	541.51056	533.06769	
5074	50.730	-185.01431	16.81898	-256.75842	217.91475	15.66260	-289.56589	-126.46266	18.14628	360.91373	210.53911	16.57754	351.37201	-94.18001	1215.10022	-384.09109	-72.42137	583.03033	-402.26944	87.90813	582.01904	-412.21448	-14.67551	550.14001	541.60999	141.49406	543.13727	532.46649	
5075	50.740	-185.58624	17.13185	-257.19888	217.57144	15.58385	-290.74323	-126.82777	17.91877	360.79898	209.90976	17.40112	351.00064	-94.87633	1215.37256	-386.63715	-73.92090	583.39496	-402.65546	86.28150	583.34698	-413.38925	-14.35391	550.71967	541.15985	141.83392	544.16742	531.64825	
5076	50.750	-183.90518	20.49199	-257.29495	216.18295	14.28349	-290.67767	-127.60540	16.77038	360.32147	208.20525	20.33421	351.70621	-95.49770	1216.34583	-389.06451	-74.47717	584.22272	-403.13669	85.54976	583.79333	-413.76767	-14.05660	551.50677	540.43256	141.79085	544.77405	530.69470	
5077	50.760	-180.42148	23.61437	-254.11581	215.65607	15.46753	-290.58868	-128.93468	17.37802	360.57489	205.29152	23.05373	354.22665	-96.96906	1217.05615	-390.30197	-75.08626	585.04633	-403.32846	84.70471	584.88574	-414.30075	-13.51986	552.49567	539.96436	142.05980	545.06323	529.86169	
5078	50.770	-178.00002	29.49849	-251.36412	214.08380	15.03448	-291.13235	-129.79623	17.48702	359.93494	200.65182	30.27842	355.32889	-99.24696	1216.90198	-390.16843	-76.61902	585.88098	-404.34308	83.60852	585.12988	-415.23862	-14.03525	553.08008	539.20654	142.05669	546.09729	529.32520	
5079	50.780	-178.73616	38.28017	-251.52071	213.38673	14.60090	-291.19653	-130.48669	17.77794	360.06137	198.40285	39.12489	355.51779	-101.11880	1216.69995	-389.40689	-76.82829	585.13446	-404.68716	83.14156	584.95831	-415.67548	-14.54042	553.85217	538.60706	141.25110	547.13544	528.52997	
5080	50.790	-178.98163	47.90824	-251.52406	212.75154	14.03718	-291.13895	-131.77751	18.06443	360.05545	197.20818	50.62915	354.09039	-102.99028	1216.90686	-389.26315	-77.92523	584.35370	-405.37979	82.37140	584.61462	-416.20981	-15.31509	554.53510	538.03180	140.76945	547.75043	528.19580	
